Patient4_TMGait_0pt4_02_left_03_GRF.mot
version=1
nRows=59
nColumns=19
inDegrees=no
endheader
time	F1x	F1y	F1z	M1x	M1y	M1z	F2x	F2y	F2z	M2x	M2y	M2z	EC1x	EC1y	EC1z	EC2x	EC2y	EC2z
3.92	-11.6217	6.0839	4.9748	-1.5835	-6.522	1.6963	-11.1949	713.3155	-46.3956	279.9763	55.3732	796.2302	-0.0592	0.0182	-0.0073	-0.0462	0.0165	0.9585
3.9335	-7.7741	4.7571	3.36	-1.3265	-4.3988	1.9544	-11.2028	722.0843	-47.3503	281.9854	55.9666	800.7815	-0.0592	0.0182	-0.0073	-0.0462	0.0165	0.9585
3.947	-4.5205	3.6664	1.9876	-1.1117	-2.6012	2.2288	-10.7965	731.2996	-48.4082	284.1921	56.4772	805.7178	-0.0592	0.0182	-0.0073	-0.0462	0.0165	0.9585
3.9605	-2.0442	2.868	0.9332	-0.95285	-1.2246	2.4969	-9.959	740.6669	-49.5601	286.5522	56.9222	810.9337	-0.0592	0.0182	-0.0073	-0.0462	0.0165	0.9585
3.974	-0.33303	2.3453	0.19403	-0.84744	-0.26092	2.7375	-8.7432	749.9032	-50.7676	288.9879	57.3119	816.2161	-0.0592	0.0182	-0.0073	-0.0462	0.0165	0.9585
3.9875	0.72148	2.042	-0.27629	-0.78335	0.34672	2.9217	-7.2432	758.6125	-51.9705	291.3563	57.6376	821.1597	-0.0592	0.0182	-0.0073	-0.0462	0.0165	0.9585
4.001	1.266	1.885	-0.53574	-0.74361	0.6684	3.0172	-5.5361	766.2781	-53.0678	293.4595	57.8336	825.1823	-0.0592	0.0182	-0.0073	-0.0462	0.0165	0.9585
4.0145	1.4388	1.7763	-0.638	-0.70274	0.77253	2.9854	-3.6696	772.3447	-53.9733	295.0777	57.8314	827.649	-0.0592	0.0182	-0.0073	-0.0462	0.0165	0.9585
4.028	1.3671	1.6037	-0.63139	-0.62849	0.72362	2.7573	-1.6855	776.3002	-54.6042	296.0043	57.5565	827.9863	-0.0592	0.0182	-0.0073	-0.0462	0.0165	0.9585
4.0415	1.1449	1.2584	-0.54495	-0.48803	0.56656	2.25	0.36941	777.7624	-54.9249	296.0804	56.9761	825.7808	-0.0592	0.0182	-0.0073	-0.0462	0.0165	0.9585
4.055	0.85432	0.63658	-0.40385	-0.25023	0.34307	1.3683	2.4532	776.5597	-54.9293	295.2242	56.086	820.8602	-0.0592	0.0182	-0.0073	-0.0462	0.0165	0.9585
4.0685	0.55739	-0.36177	-0.23503	0.11624	0.092265	0.020956	4.538	772.7544	-54.678	293.4394	54.9484	813.3179	-0.0592	0.0182	-0.0073	-0.0462	0.0165	0.9585
4.082	0.30655	-1.7851	-0.07017	0.62674	-0.14157	-1.8289	6.6059	766.6945	-54.2603	290.8374	53.654	803.5503	-0.0592	0.0182	-0.0073	-0.0462	0.0165	0.9585
4.0955	0.16249	-3.5927	0.060003	1.267	-0.30724	-4.1252	8.6564	759.0369	-53.7986	287.651	52.3156	792.2744	-0.0592	0.0182	-0.0073	-0.0462	0.0165	0.9585
4.109	0.19346	-5.6136	0.11483	1.9782	-0.33182	-6.6528	10.7019	750.7036	-53.4094	284.2161	51.0381	780.4763	-0.0592	0.0182	-0.0073	-0.0462	0.0165	0.9585
4.1225	0.48708	-7.4722	0.046469	2.6292	-0.1231	-8.9538	12.7384	742.6967	-53.1994	280.9	49.9337	769.2265	-0.0592	0.0182	-0.0073	-0.0462	0.0165	0.9585
4.136	1.1434	-8.5171	-0.20741	2.9902	0.4333	-10.2456	14.7411	735.8891	-53.2574	278.0257	49.1111	759.4519	-0.0592	0.0182	-0.0073	-0.0462	0.0165	0.9585
4.1495	2.2749	-7.7657	-0.71891	2.7095	1.4646	-9.3464	16.6813	730.8689	-53.6477	275.8118	48.6533	751.7795	-0.0592	0.0182	-0.0073	-0.0462	0.0165	0.9585
4.163	3.9667	-3.8658	-1.5596	1.2988	3.0882	-4.6241	18.5318	727.7924	-54.3976	274.3152	48.6031	746.3909	-0.0592	0.0182	-0.0073	-0.0462	0.0165	0.9585
4.1765	6.2439	4.8776	-2.7857	-1.8528	5.3759	5.9597	20.2545	726.2472	-55.4582	273.3815	48.9291	742.8843	-0.0592	0.0182	-0.0073	-0.0462	0.0165	0.9585
4.19	9.0135	20.3369	-4.4042	-7.4172	8.2946	24.6531	21.7918	725.2041	-56.7013	272.6259	49.5246	740.2348	-0.0592	0.0182	-0.0073	-0.0462	0.0165	0.9585
4.2035	11.9727	44.2303	-6.3197	-16.0081	11.6122	53.5153	23.0777	723.0973	-57.8893	271.4656	50.1761	736.8687	-0.0592	0.0182	-0.0073	-0.0462	0.0165	0.9585
4.217	14.5096	77.5429	-8.2808	-27.9732	14.796	93.7017	24.0274	717.9991	-58.7221	269.1909	50.6104	730.8432	-0.0592	0.0182	-0.0073	-0.0462	0.0165	0.9585
4.2305	15.6001	119.6332	-9.8033	-43.0713	16.8874	144.4023	24.5568	707.8859	-58.8577	265.0646	50.5115	720.1142	-0.0592	0.0182	-0.0073	-0.0462	0.0165	0.9585
4.244	13.9483	167.2318	-10.129	-60.1034	16.5163	201.6706	24.613	691.0115	-58.0016	258.4553	49.603	702.8972	-0.0592	0.0182	-0.0073	-0.0462	0.0165	0.9585
4.2575	9.2387	214.4457	-8.2912	-76.8903	12.4471	258.4602	24.1988	666.3265	-55.9707	248.9928	47.7057	678.0705	-0.0592	0.0182	-0.0073	-0.0462	0.0165	0.9585
4.271	2.913	255.4861	-3.82	-91.3305	4.772	307.6968	23.4062	633.8548	-52.8094	236.7042	44.8409	645.5515	-0.0592	0.0182	-0.0073	-0.0462	0.0165	0.9585
4.2845	-3.4277	289.3591	2.3845	-103.0803	-4.8989	347.9164	22.4028	594.7715	-48.8138	222.022	41.2499	606.3986	-0.0592	0.0182	-0.0073	-0.0462	0.0165	0.9585
4.298	-8.8397	318.5325	9.7627	-113.051	-15.5047	381.9465	21.39	550.7384	-44.4695	205.5496	37.3333	562.1669	-0.0592	0.0182	-0.0073	-0.0462	0.0165	0.9585
4.3115	-12.8944	346.1861	17.3131	-122.4469	-25.7513	413.5072	20.4734	503.3385	-40.1157	187.8613	33.3802	514.3791	-0.0592	0.0182	-0.0073	-0.0462	0.0165	0.9585
4.325	-15.6538	374.7705	24.5608	-132.1947	-35.0546	445.5553	19.6256	453.8035	-35.8768	169.4125	29.5194	464.2516	-0.0592	0.0182	-0.0073	-0.0462	0.0165	0.9585
4.3385	-17.2409	405.5849	30.8245	-142.8204	-42.7126	479.5899	18.688	403.1094	-31.6948	150.5635	25.7454	412.8016	-0.0592	0.0182	-0.0073	-0.0462	0.0165	0.9585
4.352	-17.8108	439.1599	36.0194	-154.5327	-48.6689	516.2798	17.452	352.0676	-27.5344	131.6071	22.0915	360.8964	-0.0592	0.0182	-0.0073	-0.0462	0.0165	0.9585
4.3655	-17.4009	475.615	40.1251	-167.3685	-52.9634	555.7719	15.7046	301.515	-23.4209	112.8389	18.65	309.4254	-0.0592	0.0182	-0.0073	-0.0462	0.0165	0.9585
4.379	-16.1068	514.6003	43.5977	-181.1622	-56.1554	597.7253	13.2974	252.4363	-19.4831	94.6061	15.5883	259.4259	-0.0592	0.0182	-0.0073	-0.0462	0.0165	0.9585
4.3925	-14.2103	555.259	46.7999	-195.5675	-58.7886	641.1963	10.2403	205.9958	-15.8479	77.3266	13.0267	212.0897	-0.0592	0.0182	-0.0073	-0.0462	0.0165	0.9585
4.406	-12.0729	596.5341	50.1497	-210.1706	-61.4689	685.0323	6.6726	163.4501	-12.629	61.4597	11.0328	168.7022	-0.0592	0.0182	-0.0073	-0.0462	0.0165	0.9585
4.4195	-10.0339	637.4832	53.7182	-224.6152	-64.416	728.2416	2.9052	125.932	-9.8818	47.4305	9.5619	130.4024	-0.0592	0.0182	-0.0073	-0.0462	0.0165	0.9585
4.433	-8.2508	677.1055	57.3967	-238.5482	-67.5662	769.7477	-0.66964	94.1763	-7.6124	35.5225	8.4919	97.9226	-0.0592	0.0182	-0.0073	-0.0462	0.0165	0.9585
4.4465	-6.8117	714.1748	60.9105	-251.548	-70.6434	808.2311	-3.7185	68.3281	-5.7834	25.8042	7.6723	71.4051	-0.0592	0.0182	-0.0073	-0.0462	0.0165	0.9585
4.46	-5.7098	747.1712	64.0406	-263.0967	-73.3943	842.0333	-6.0078	47.9964	-4.3158	18.1455	6.9446	50.4522	-0.0592	0.0182	-0.0073	-0.0462	0.0165	0.9585
4.4735	-4.8871	774.6271	66.6486	-272.6864	-75.6413	869.5632	-7.4292	32.4779	-3.1361	12.2907	6.1965	34.3816	-0.0592	0.0182	-0.0073	-0.0462	0.0165	0.9585
4.487	-4.2618	795.4108	68.6554	-279.9283	-77.2629	889.598	-7.92	20.9022	-2.1725	7.9205	5.3343	22.3238	-0.0592	0.0182	-0.0073	-0.0462	0.0165	0.9585
4.5005	-3.7157	808.9558	70.0523	-284.6314	-78.2056	901.5425	-7.5193	12.4286	-1.393	4.7216	4.3362	13.4455	-0.0592	0.0182	-0.0073	-0.0462	0.0165	0.9585
4.514	-3.1718	815.3688	70.7883	-286.8467	-78.3847	905.5683	-6.3649	6.3832	-0.77485	2.4407	3.2317	7.0666	-0.0592	0.0182	-0.0073	-0.0462	0.0165	0.9585
4.5275	-2.5377	815.4197	70.855	-286.8533	-77.7601	902.5779	-4.7715	2.3019	-0.32872	0.90286	2.1502	2.7154	-0.0592	0.0182	-0.0073	-0.0462	0.0165	0.9585
4.541	-1.7664	810.3233	70.2207	-285.0825	-76.2863	893.9615	-3.165	-0.16688	-0.030742	-0.026425	1.223	0.055814	-0.0592	0.0182	-0.0073	-0.0462	0.0165	0.9585
4.5545	-0.85499	801.5039	68.989	-282.0271	-74.0756	881.3377	-1.7612	-1.4451	0.13298	-0.5034	0.51872	-1.3506	-0.0592	0.0182	-0.0073	-0.0462	0.0165	0.9585
4.568	0.17641	790.4445	67.2513	-278.1995	-71.2491	866.3522	-0.66843	-1.8993	0.20988	-0.66878	0.027537	-1.8716	-0.0592	0.0182	-0.0073	-0.0462	0.0165	0.9585
4.5815	1.3009	778.5758	65.1963	-274.0893	-68.0345	850.5865	0.10937	-1.858	0.22062	-0.6456	-0.27314	-1.8536	-0.0592	0.0182	-0.0073	-0.0462	0.0165	0.9585
4.595	2.4913	767.1599	62.9436	-270.1319	-64.5985	835.4051	0.61207	-1.5604	0.20329	-0.52407	-0.43853	-1.5469	-0.0592	0.0182	-0.0073	-0.0462	0.0165	0.9585
4.6085	3.695	757.2107	60.6742	-266.6749	-61.1662	821.9014	0.89277	-1.1495	0.17144	-0.3636	-0.50588	-1.0906	-0.0592	0.0182	-0.0073	-0.0462	0.0165	0.9585
4.622	4.8816	749.4671	58.4546	-263.9751	-57.8382	810.8508	1.0366	-0.72409	0.14678	-0.20276	-0.52683	-0.60517	-0.0592	0.0182	-0.0073	-0.0462	0.0165	0.9585
4.6355	6.0249	744.3459	56.3919	-262.1738	-54.7345	802.6851	1.0721	-0.3303	0.13453	-0.060267	-0.52097	-0.13983	-0.0592	0.0182	-0.0073	-0.0462	0.0165	0.9585
4.649	7.1234	741.9266	54.5012	-261.2946	-51.8759	797.4557	1.0532	0.0037735	0.1395	0.055559	-0.51013	0.25412	-0.0592	0.0182	-0.0073	-0.0462	0.0165	0.9585
4.6625	8.1655	742.0051	52.8533	-261.2537	-49.3333	794.9268	1.0044	0.28051	0.1562	0.14627	-0.49594	0.5739	-0.0592	0.0182	-0.0073	-0.0462	0.0165	0.9585
4.676	9.1557	744.2103	51.4568	-261.9056	-47.1177	794.689	0.92997	0.5002	0.18266	0.21273	-0.47912	0.81879	-0.0592	0.0182	-0.0073	-0.0462	0.0165	0.9585
4.6895	10.0869	748.0601	50.3566	-263.065	-45.2775	796.2385	0.84481	0.64837	0.21421	0.25113	-0.46207	0.9676	-0.0592	0.0182	-0.0073	-0.0462	0.0165	0.9585
4.703	10.9652	752.9985	49.5579	-264.5259	-43.8153	798.9926	0.73565	0.72739	0.24496	0.26069	-0.43811	1.0364	-0.0592	0.0182	-0.0073	-0.0462	0.0165	0.9585
